<svg width="170" height="66" viewBox="0 0 170 66" fill="none" xmlns="http://www.w3.org/2000/svg">
<path d="M5.19162 29.4627H9.15731V33.4606C9.18136 33.9086 9.09676 34.3558 8.91086 34.7632C8.72496 35.1706 8.44339 35.526 8.09062 35.7985C7.37662 36.3432 6.32426 36.6155 4.93355 36.6155C3.53996 36.6155 2.49047 36.3417 1.77648 35.7985C1.42235 35.527 1.13954 35.1719 0.952824 34.7643C0.766105 34.3567 0.681177 33.9091 0.705482 33.4606V26.9423C0.681928 26.494 0.767192 26.0466 0.953853 25.6391C1.14051 25.2316 1.42291 24.8764 1.77648 24.6044C2.49047 24.0612 3.53996 23.7918 4.93355 23.7918C6.32713 23.7918 7.37662 24.0612 8.09062 24.6044C8.44283 24.8774 8.724 25.2329 8.90984 25.6402C9.09568 26.0475 9.18062 26.4944 9.15731 26.9423V28.1591H6.47767V26.7946C6.49645 26.614 6.46961 26.4317 6.39965 26.2645C6.32969 26.0973 6.21891 25.9507 6.07766 25.8386C5.75875 25.6375 5.38635 25.5404 5.01097 25.5604C4.63425 25.5406 4.26054 25.6377 3.93997 25.8386C3.79872 25.9507 3.68794 26.0973 3.61799 26.2645C3.54803 26.4317 3.52119 26.614 3.53996 26.7946V33.5649C3.52029 33.7449 3.54675 33.9269 3.6168 34.0936C3.68685 34.2603 3.79813 34.4059 3.93997 34.5166C4.26304 34.7107 4.63553 34.8044 5.01097 34.786C5.38504 34.8043 5.75613 34.7106 6.07766 34.5166C6.2195 34.4059 6.33079 34.2603 6.40084 34.0936C6.47089 33.9269 6.49735 33.7449 6.47767 33.5649V31.2574H5.18732L5.19162 29.4627Z" fill="#FF9B04"/>
<path d="M16.9165 36.4504C16.8821 36.3692 16.8477 36.291 16.8133 36.2157C16.7736 36.1295 16.7433 36.0391 16.723 35.9463C16.6934 35.812 16.6762 35.6753 16.6714 35.5378C16.6714 35.3683 16.6714 35.1597 16.6714 34.9077V32.9392C16.6967 32.714 16.6711 32.4859 16.5966 32.2722C16.5221 32.0584 16.4006 31.8645 16.2412 31.705C15.8222 31.4296 15.3244 31.3027 14.8262 31.3443H13.824V36.4504H10.9895V23.9004H15.2649C16.7445 23.9004 17.814 24.1394 18.4736 24.6175C18.8074 24.8653 19.0736 25.1946 19.2473 25.5745C19.4211 25.9545 19.4967 26.3727 19.4671 26.7902V27.7767C19.5046 28.3506 19.3418 28.9197 19.0071 29.3849C18.6723 29.8501 18.1868 30.1821 17.6348 30.3231C18.238 30.4462 18.7693 30.8035 19.1144 31.3183C19.3939 31.8296 19.5321 32.4075 19.5144 32.9913V34.9294C19.5121 35.2012 19.5293 35.4728 19.5661 35.742C19.6065 35.9926 19.6941 36.2331 19.8241 36.4504H16.9165ZM13.824 25.7038V29.5496H14.9294C15.3649 29.5735 15.7983 29.4742 16.181 29.2628C16.3369 29.1472 16.4604 28.9928 16.5396 28.8146C16.6187 28.6364 16.6508 28.4405 16.6327 28.246V26.9945C16.6494 26.8143 16.6269 26.6326 16.5667 26.4622C16.5066 26.2918 16.4101 26.1368 16.2843 26.008C15.966 25.7783 15.5772 25.6705 15.1875 25.7038H13.824Z" fill="#FF9B04"/>
<path d="M30.5385 36.4504H27.661L27.1707 34.1733H23.6953L23.2265 36.4504H20.6028L23.4889 23.9004H27.6352L30.5385 36.4504ZM24.0867 32.4742H26.8223L25.4201 26.134L24.0867 32.4742Z" fill="#FF9B04"/>
<path d="M34.3623 27.3769V36.459H31.8289V23.9004H35.3859L38.2806 31.4182V23.9004H40.8054V36.4503H37.8935L34.3623 27.3769Z" fill="#FF9B04"/>
<path d="M42.8398 23.9004H47.3131C48.7468 23.9004 49.8078 24.1626 50.496 24.687C50.8439 24.9564 51.1209 25.3083 51.3024 25.7114C51.4839 26.1146 51.5645 26.5568 51.5368 26.9988V33.352C51.5637 33.7939 51.4828 34.2358 51.3014 34.6389C51.1199 35.0419 50.8434 35.3938 50.496 35.6638C49.7992 36.1853 48.7368 36.4504 47.3131 36.4504H42.8398V23.9004ZM45.6743 25.6908V34.66H47.2744C47.6445 34.6802 48.0121 34.5863 48.3282 34.3906C48.4667 34.2776 48.5748 34.1312 48.6425 33.9649C48.7102 33.7985 48.7352 33.6176 48.7153 33.4389V26.9423C48.7344 26.7643 48.709 26.5843 48.6414 26.4187C48.5738 26.2532 48.4661 26.1075 48.3282 25.995C48.0129 25.7972 47.6448 25.7031 47.2744 25.7256L45.6743 25.6908Z" fill="#FF9B04"/>
<path d="M53.3562 23.9004H56.1907V34.66H60.8532V36.4504H53.3562V23.9004Z" fill="#FF9B04"/>
<path d="M64.978 29.1977H68.8706V30.988H64.978V34.66H69.8727V36.4504H62.1306V23.9004H69.8727V25.6908H64.978V29.1977Z" fill="#FF9B04"/>
<path d="M71.2663 26.9423C71.2421 26.4969 71.3241 26.0522 71.5052 25.6454C71.6863 25.2386 71.9613 24.8817 72.3072 24.6044C73.0039 24.0627 74.0477 23.7918 75.4384 23.7918C76.8291 23.7918 77.8729 24.0627 78.5697 24.6044C78.9169 24.8807 79.1931 25.2374 79.375 25.6444C79.5569 26.0513 79.6392 26.4965 79.6149 26.9423V27.4247H76.9352V26.8163C76.9539 26.6383 76.9297 26.4583 76.8645 26.2918C76.7993 26.1253 76.6952 25.9772 76.561 25.8603C76.2431 25.6778 75.8837 25.5819 75.518 25.5819C75.1523 25.5819 74.7929 25.6778 74.475 25.8603C74.3408 25.9772 74.2366 26.1253 74.1715 26.2918C74.1063 26.4583 74.082 26.6383 74.1008 26.8163C74.1011 27.2363 74.2541 27.6415 74.5309 27.9548C74.8317 28.309 75.1774 28.6216 75.5589 28.8848C75.989 29.1803 76.4191 29.4714 76.8879 29.7539C77.3521 30.0409 77.7949 30.3619 78.2127 30.7142C78.6168 31.0503 78.9652 31.4493 79.245 31.8962C79.5331 32.3624 79.6824 32.9024 79.6751 33.4519C79.6994 33.9004 79.6145 34.348 79.4277 34.7556C79.241 35.1632 78.9582 35.5183 78.6041 35.7898C77.8958 36.3345 76.8435 36.6068 75.447 36.6068C74.0506 36.6068 72.9882 36.3301 72.2598 35.7768C71.9094 35.5069 71.6289 35.1552 71.4423 34.7518C71.2558 34.3484 71.1688 33.9054 71.1888 33.4606V32.5915H73.8685V33.5736C73.8488 33.7536 73.8753 33.9356 73.9453 34.1023C74.0154 34.2689 74.1267 34.4146 74.2685 34.5253C74.5992 34.7044 74.9686 34.7982 75.3438 34.7982C75.719 34.7982 76.0884 34.7044 76.4191 34.5253C76.5609 34.4146 76.6722 34.2689 76.7423 34.1023C76.8123 33.9356 76.8388 33.7536 76.8191 33.5736C76.8193 33.1548 76.6661 32.7508 76.389 32.4394C76.0855 32.085 75.7387 31.771 75.3567 31.5051C74.9266 31.214 74.4965 30.9228 74.0319 30.636C73.5671 30.3494 73.123 30.03 72.7029 29.68C72.3 29.344 71.9529 28.9449 71.6749 28.498C71.3945 28.0295 71.2527 27.4897 71.2663 26.9423Z" fill="#FF9B04"/>
<path d="M87.2668 32.8131L89.2024 23.9004H93.1423V36.4504H90.4626V27.4594L88.5056 36.4504H85.8259L83.7141 27.5855V36.4504H81.2366V23.9004H85.1636L87.2668 32.8131Z" fill="#FF9B04"/>
<path d="M104.381 36.4504H101.508L101.018 34.1733H97.5508L97.0604 36.4504H94.4797L97.3443 23.9004H101.508L104.381 36.4504ZM97.9293 32.4742H100.648L99.2799 26.134L97.9293 32.4742Z" fill="#FF9B04"/>
<path d="M111.62 36.4504C111.586 36.3692 111.551 36.291 111.517 36.2157C111.477 36.1295 111.447 36.0391 111.426 35.9463C111.397 35.812 111.38 35.6753 111.375 35.5378C111.375 35.3683 111.375 35.1597 111.375 34.9077V32.9392C111.399 32.714 111.373 32.4863 111.299 32.2727C111.224 32.0591 111.103 31.8651 110.945 31.705C110.524 31.4289 110.025 31.302 109.525 31.3443H108.545V36.4504H105.71V23.9004H110.011C111.488 23.9004 112.558 24.1394 113.22 24.6175C113.553 24.8658 113.818 25.1953 113.991 25.5752C114.164 25.9551 114.239 26.3731 114.209 26.7902V27.7767C114.246 28.353 114.08 28.9238 113.741 29.3887C113.402 29.8537 112.911 30.183 112.356 30.3188C112.96 30.4408 113.493 30.7982 113.839 31.3139C114.117 31.826 114.255 32.4033 114.239 32.987V34.9251C114.236 35.1967 114.252 35.4683 114.287 35.7377C114.327 35.9883 114.415 36.2287 114.545 36.446L111.62 36.4504ZM108.527 25.7038V29.5496H109.637C110.073 29.5735 110.506 29.4742 110.889 29.2628C111.044 29.1467 111.167 28.9921 111.246 28.8141C111.325 28.636 111.358 28.4404 111.34 28.246V26.9945C111.357 26.8143 111.335 26.6326 111.275 26.4622C111.214 26.2918 111.118 26.1368 110.992 26.008C110.674 25.7783 110.285 25.6705 109.895 25.7038H108.527Z" fill="#FF9B04"/>
<path d="M119.767 31.453L118.906 32.6002V36.4504H116.072V23.9004H118.906V29.3758L122.653 23.9004H125.435L121.491 29.4888L125.435 36.4417H122.524L119.767 31.453Z" fill="#FF9B04"/>
<path d="M129.556 29.1977H133.449V30.988H129.556V34.66H134.455V36.4504H126.713V23.9004H134.455V25.6908H129.556V29.1977Z" fill="#FF9B04"/>
<path d="M135.431 23.9004H144.193V25.6908H141.234V36.4504H138.395V25.7038H135.431V23.9004Z" fill="#FF9B04"/>
<path d="M148.215 34.5514V36.4504H145.483V34.5514H148.215Z" fill="#FF9B04"/>
<path d="M156.202 36.4504L156.099 36.2157C156.061 36.1288 156.03 36.0386 156.008 35.9463C155.978 35.8122 155.962 35.6753 155.961 35.5378C155.961 35.3683 155.961 35.1597 155.961 34.9077V32.9392C155.986 32.714 155.961 32.4859 155.886 32.2722C155.812 32.0584 155.69 31.8645 155.531 31.705C155.11 31.4289 154.611 31.302 154.111 31.3443H153.122V36.4504H150.288V23.9004H154.567C156.044 23.9004 157.114 24.1394 157.776 24.6175C158.11 24.8653 158.376 25.1946 158.55 25.5745C158.723 25.9545 158.799 26.3727 158.77 26.7902V27.7767C158.805 28.3534 158.638 28.9243 158.298 29.3891C157.958 29.854 157.467 30.1831 156.911 30.3188C157.516 30.4408 158.049 30.7982 158.395 31.3139C158.675 31.8252 158.813 32.4031 158.795 32.987V34.9251C158.791 35.1969 158.808 35.4687 158.847 35.7377C158.886 35.9881 158.972 36.2286 159.101 36.446L156.202 36.4504ZM153.122 25.7038V29.5496H154.232C154.667 29.5735 155.101 29.4742 155.483 29.2628C155.636 29.1452 155.757 28.99 155.834 28.812C155.91 28.6341 155.941 28.4392 155.922 28.246V26.9945C155.939 26.8143 155.916 26.6326 155.856 26.4622C155.796 26.2918 155.7 26.1368 155.574 26.008C155.255 25.7783 154.867 25.6705 154.477 25.7038H153.122Z" fill="#FF9B04"/>
<path d="M163.342 23.9004V33.5823C163.322 33.7623 163.349 33.9443 163.419 34.111C163.489 34.2776 163.6 34.4233 163.742 34.534C164.072 34.7131 164.442 34.8069 164.817 34.8069C165.192 34.8069 165.562 34.7131 165.892 34.534C166.034 34.4233 166.145 34.2776 166.216 34.111C166.286 33.9443 166.312 33.7623 166.292 33.5823V23.9004H168.972V33.4606C168.995 33.9079 168.91 34.3542 168.725 34.7608C168.539 35.1674 168.257 35.5221 167.905 35.7942C167.191 36.3417 166.138 36.6111 164.748 36.6111C163.359 36.6111 162.301 36.3417 161.591 35.7942C161.235 35.5245 160.95 35.1707 160.761 34.7639C160.572 34.357 160.485 33.9095 160.507 33.4606V23.9004H163.342Z" fill="#FF9B04"/>
<path d="M27.0974 42.6775H26.1082V38.8621H29.1921V42.6775H28.1942V39.4053H27.0974V42.6775Z" fill="#2B1A01"/>
<path d="M32.6889 42.6775H31.6738V38.8621H32.5341V41.1435L33.5491 38.8621H34.775V42.6775H33.9147V39.9137L32.6889 42.6775Z" fill="#2B1A01"/>
<path d="M40.0011 39.4053H38.8656V41.7171C38.8761 41.8738 38.8409 42.0301 38.7645 42.1668C38.688 42.3034 38.5737 42.4145 38.4355 42.4863C38.3002 42.5571 38.1552 42.6069 38.0054 42.6341C37.8306 42.6642 37.6536 42.6788 37.4763 42.6775H37.2354H37.0032V42.1517H37.343C37.4782 42.1557 37.6128 42.1321 37.7387 42.0822C37.7934 42.0568 37.8388 42.0145 37.8681 41.9614C37.8975 41.9083 37.9094 41.8471 37.9021 41.7867V38.8621H40.9904V42.6775H40.0011V39.4053Z" fill="#2B1A01"/>
<path d="M43.373 39.7747C43.3685 39.6328 43.4016 39.4924 43.4689 39.3678C43.5362 39.2433 43.6353 39.1392 43.7558 39.0664C44.1002 38.9022 44.4762 38.8171 44.8569 38.8171C45.2377 38.8171 45.6137 38.9022 45.958 39.0664C46.0786 39.1392 46.1777 39.2433 46.245 39.3678C46.3123 39.4924 46.3454 39.6328 46.3408 39.7747V41.7606C46.3457 41.9031 46.3128 42.0443 46.2455 42.1696C46.1782 42.2949 46.0789 42.3997 45.958 42.4733C45.6137 42.6374 45.2377 42.7225 44.8569 42.7225C44.4762 42.7225 44.1002 42.6374 43.7558 42.4733C43.6349 42.3997 43.5357 42.2949 43.4684 42.1696C43.4011 42.0443 43.3682 41.9031 43.373 41.7606V39.7747ZM44.3494 41.7997C44.3449 41.8562 44.3553 41.9129 44.3795 41.964C44.4036 42.0151 44.4407 42.0589 44.487 42.0909C44.6026 42.1465 44.729 42.1753 44.8569 42.1753C44.9849 42.1753 45.1113 42.1465 45.2268 42.0909C45.2731 42.0589 45.3103 42.0151 45.3344 41.964C45.3586 41.9129 45.369 41.8562 45.3645 41.7997V39.7399C45.3697 39.6827 45.3598 39.6252 45.3356 39.5732C45.3114 39.5212 45.2738 39.4768 45.2268 39.4444C45.1113 39.3888 44.9849 39.36 44.8569 39.36C44.729 39.36 44.6026 39.3888 44.487 39.4444C44.4401 39.4768 44.4025 39.5212 44.3783 39.5732C44.3541 39.6252 44.3441 39.6827 44.3494 39.7399V41.7997Z" fill="#2B1A01"/>
<path d="M50.8141 41.5694L51.4765 38.8621H52.8357V42.6775H51.9152V39.9398L51.2399 42.6775H50.3238L49.5883 39.9789V42.6775H48.728V38.8621H50.0829L50.8141 41.5694Z" fill="#2B1A01"/>
<path d="M58.4961 42.6775H57.5112L57.3391 41.9822H56.1434L55.9756 42.6775H55.0552L56.0487 38.8621H57.4767L58.4961 42.6775ZM56.2681 41.4651H57.2058L56.7154 39.5444L56.2681 41.4651Z" fill="#2B1A01"/>
<path d="M60.4274 38.8621H63.4382V39.4053H62.4188V42.6775H61.4425V39.4053H60.4231L60.4274 38.8621Z" fill="#2B1A01"/>
<path d="M66.6382 40.47H67.9802V41.0132H66.6382V42.1517H68.3243V42.6992H65.6619V38.8621H68.3243V39.4053H66.6382V40.47Z" fill="#2B1A01"/>
<path d="M72.1136 38.8621C72.4943 38.8342 72.8749 38.9171 73.2104 39.1011C73.3266 39.176 73.4212 39.2805 73.4847 39.4041C73.5481 39.5277 73.5781 39.666 73.5717 39.8051V40.3005C73.5781 40.4396 73.5481 40.5779 73.4847 40.7015C73.4212 40.8252 73.3266 40.9297 73.2104 41.0045C72.8742 41.1864 72.4941 41.2693 72.1136 41.2435H71.6534V42.6775H70.677V38.8621H72.1136ZM71.6534 39.4053V40.709H72.1136C72.2369 40.7154 72.3597 40.69 72.4706 40.6351C72.5142 40.6033 72.5486 40.5604 72.5705 40.5108C72.5924 40.4612 72.601 40.4067 72.5953 40.3526V39.766C72.6019 39.7119 72.5938 39.657 72.5718 39.6073C72.5498 39.5575 72.5148 39.5147 72.4706 39.4835C72.361 39.4248 72.2374 39.3978 72.1136 39.4053H71.6534Z" fill="#2B1A01"/>
<path d="M76.7934 42.6775H75.7913V38.8621H76.6515V41.1435L77.6537 38.8621H78.8795V42.6775H78.0193V39.9137L76.7934 42.6775Z" fill="#2B1A01"/>
<path d="M84.5269 42.6775H83.5376L83.3698 41.9822H82.1741L82.0021 42.6775H81.1074L82.101 38.8621H83.529L84.5269 42.6775ZM82.2945 41.4651H83.2365L82.7677 39.5444L82.2945 41.4651Z" fill="#2B1A01"/>
<path d="M89.4862 39.4053H88.3507V41.7171C88.3612 41.8738 88.326 42.0301 88.2496 42.1668C88.1731 42.3034 88.0588 42.4145 87.9206 42.4863C87.7853 42.5571 87.6404 42.6069 87.4905 42.6341C87.3157 42.664 87.1387 42.6785 86.9614 42.6775H86.7205H86.4883V42.1517H86.8281C86.9633 42.1557 87.0979 42.1321 87.2238 42.0822C87.2785 42.0568 87.3239 42.0145 87.3533 41.9614C87.3826 41.9083 87.3945 41.8471 87.3872 41.7867V38.8621H90.4755V42.6775H89.4991L89.4862 39.4053Z" fill="#2B1A01"/>
<path d="M92.9485 42.6775V38.8621H93.9249V40.2918H94.3851C94.7661 40.2662 95.1465 40.3506 95.4819 40.5352C95.5984 40.6086 95.6933 40.7122 95.7569 40.8353C95.8204 40.9583 95.8502 41.0962 95.8432 41.2348V41.7171C95.8502 41.8557 95.8204 41.9937 95.7569 42.1167C95.6933 42.2397 95.5984 42.3433 95.4819 42.4168C95.1465 42.6014 94.7661 42.6858 94.3851 42.6601L92.9485 42.6775ZM94.3851 42.1517C94.5083 42.1577 94.6311 42.1323 94.7421 42.0778C94.786 42.0453 94.8206 42.0017 94.8425 41.9513C94.8644 41.901 94.8728 41.8457 94.8668 41.791V41.2C94.8734 41.1459 94.8653 41.0911 94.8433 41.0413C94.8213 40.9915 94.7863 40.9488 94.7421 40.9176C94.6322 40.8595 94.5089 40.8325 94.3851 40.8393H93.9249V42.143L94.3851 42.1517ZM96.3206 38.8839H97.297V42.6992H96.3206V38.8839Z" fill="#2B1A01"/>
<path d="M104.407 38.8621C104.788 38.8341 105.17 38.9091 105.512 39.0794C105.624 39.1477 105.714 39.2452 105.775 39.3615C105.836 39.4779 105.864 39.6087 105.857 39.7399V39.8746C105.863 40.0502 105.808 40.2223 105.702 40.3613C105.576 40.5043 105.409 40.6032 105.224 40.6438C105.44 40.6773 105.638 40.7829 105.788 40.9436C105.898 41.0925 105.956 41.2747 105.951 41.4607V41.7693C105.956 41.9055 105.924 42.0405 105.858 42.1594C105.792 42.2783 105.695 42.3764 105.577 42.4428C105.237 42.6214 104.854 42.7026 104.472 42.6775H102.936V38.8621H104.407ZM103.912 39.4053V40.4135H104.291C104.439 40.4205 104.587 40.3906 104.721 40.3266C104.774 40.2941 104.818 40.2472 104.846 40.1911C104.874 40.135 104.886 40.072 104.88 40.0093V39.7964C104.884 39.7405 104.875 39.6844 104.854 39.6325C104.833 39.5805 104.801 39.534 104.76 39.4966C104.646 39.427 104.514 39.3951 104.381 39.4053H103.912ZM103.912 40.9567V42.1517H104.472C104.601 42.1603 104.731 42.1316 104.846 42.0691C104.891 42.0367 104.927 41.9926 104.95 41.9414C104.972 41.8902 104.981 41.8337 104.975 41.778V41.4434C104.983 41.375 104.974 41.3055 104.949 41.2416C104.923 41.1777 104.882 41.1215 104.829 41.0783C104.68 41.0007 104.513 40.9661 104.347 40.9784L103.912 40.9567Z" fill="#2B1A01"/>
<path d="M113.551 41.5694L114.214 38.8621H115.573V42.6775H114.652V39.9398L113.981 42.6775H113.035L112.308 39.9789V42.6775H111.448V38.8621H112.803L113.551 41.5694Z" fill="#2B1A01"/>
<path d="M117.951 39.7747C117.947 39.6328 117.98 39.4924 118.047 39.3678C118.115 39.2433 118.214 39.1392 118.334 39.0664C118.679 38.9022 119.055 38.8171 119.435 38.8171C119.816 38.8171 120.192 38.9022 120.536 39.0664C120.657 39.1392 120.756 39.2433 120.823 39.3678C120.891 39.4924 120.924 39.6328 120.919 39.7747V41.7606C120.924 41.9031 120.891 42.0443 120.824 42.1696C120.757 42.2949 120.657 42.3997 120.536 42.4733C120.192 42.6374 119.816 42.7225 119.435 42.7225C119.055 42.7225 118.679 42.6374 118.334 42.4733C118.213 42.3997 118.114 42.2949 118.047 42.1696C117.979 42.0443 117.947 41.9031 117.951 41.7606V39.7747ZM118.928 41.7997C118.923 41.8562 118.934 41.9129 118.958 41.964C118.982 42.0151 119.019 42.0589 119.065 42.0909C119.181 42.1465 119.307 42.1753 119.435 42.1753C119.563 42.1753 119.69 42.1465 119.805 42.0909C119.852 42.0589 119.889 42.0151 119.913 41.964C119.937 41.9129 119.947 41.8562 119.943 41.7997V39.7399C119.948 39.6827 119.938 39.6252 119.914 39.5732C119.89 39.5212 119.852 39.4768 119.805 39.4444C119.69 39.3888 119.563 39.36 119.435 39.36C119.307 39.36 119.181 39.3888 119.065 39.4444C119.018 39.4768 118.981 39.5212 118.957 39.5732C118.932 39.6252 118.922 39.6827 118.928 39.7399V41.7997Z" fill="#2B1A01"/>
<path d="M126.137 41.2522V41.7606C126.142 41.9017 126.111 42.0417 126.046 42.1667C125.981 42.2918 125.885 42.3975 125.767 42.4733C125.43 42.6329 125.063 42.7157 124.691 42.7157C124.32 42.7157 123.953 42.6329 123.616 42.4733C123.498 42.3975 123.402 42.2918 123.337 42.1667C123.272 42.0417 123.241 41.9017 123.246 41.7606V39.7747C123.241 39.6342 123.272 39.4947 123.337 39.3704C123.402 39.246 123.498 39.1411 123.616 39.0664C123.953 38.9067 124.32 38.8239 124.691 38.8239C125.063 38.8239 125.43 38.9067 125.767 39.0664C125.885 39.1411 125.981 39.246 126.046 39.3704C126.111 39.4947 126.142 39.6342 126.137 39.7747V40.1484H125.212V39.7399C125.218 39.6826 125.208 39.6247 125.184 39.5726C125.16 39.5205 125.122 39.4761 125.074 39.4444C124.959 39.3895 124.834 39.361 124.706 39.361C124.579 39.361 124.454 39.3895 124.339 39.4444C124.292 39.4768 124.254 39.5212 124.23 39.5732C124.206 39.6252 124.196 39.6827 124.201 39.7399V41.7997C124.196 41.8556 124.206 41.9119 124.23 41.9625C124.255 42.013 124.292 42.0559 124.339 42.0865C124.454 42.1414 124.579 42.1699 124.706 42.1699C124.834 42.1699 124.959 42.1414 125.074 42.0865C125.122 42.0566 125.16 42.0138 125.184 41.9631C125.208 41.9124 125.218 41.8558 125.212 41.7997V41.2522H126.137Z" fill="#2B1A01"/>
<path d="M129.81 41.1566L129.509 41.5042V42.6775H128.532V38.8621H129.509V40.5221L130.799 38.8621H131.758L130.403 40.5612L131.758 42.6775H130.756L129.81 41.1566Z" fill="#2B1A01"/>
<path d="M135.457 38.8621C135.838 38.8341 136.22 38.9091 136.563 39.0794C136.673 39.1482 136.763 39.246 136.823 39.3623C136.883 39.4786 136.91 39.6091 136.902 39.7399V39.8746C136.91 40.0497 136.857 40.2219 136.752 40.3613C136.626 40.5043 136.459 40.6032 136.274 40.6438C136.49 40.6773 136.689 40.7829 136.838 40.9436C136.949 41.0925 137.006 41.2747 137.001 41.4607V41.7693C137.007 41.9055 136.974 42.0405 136.908 42.1594C136.842 42.2783 136.745 42.3764 136.627 42.4428C136.285 42.6199 135.901 42.701 135.517 42.6775H133.982V38.8621H135.457ZM134.958 39.4053V40.4135H135.341C135.489 40.4205 135.637 40.3906 135.771 40.3266C135.824 40.294 135.867 40.2468 135.894 40.1907C135.922 40.1345 135.933 40.0716 135.926 40.0093V39.7964C135.931 39.7404 135.922 39.684 135.901 39.6319C135.881 39.5798 135.848 39.5334 135.806 39.4966C135.694 39.4265 135.563 39.3945 135.431 39.4053H134.958ZM134.958 40.9567V42.1517H135.517C135.649 42.1608 135.78 42.1322 135.896 42.0691C135.941 42.0367 135.977 41.9926 136 41.9414C136.023 41.8902 136.031 41.8337 136.025 41.778V41.4434C136.033 41.375 136.024 41.3055 135.999 41.2416C135.973 41.1777 135.932 41.1215 135.879 41.0783C135.729 41.0003 135.561 40.9657 135.393 40.9784L134.958 40.9567Z" fill="#2B1A01"/>
<path d="M140.33 40.47H141.668V41.0132H140.33V42.1517H142.017V42.6992H139.358V38.8621H142.021V39.4053H140.335L140.33 40.47Z" fill="#2B1A01"/>
<path d="M59.2919 16.6043L62.264 9.75138L62.7457 9.89478C62.7887 10.0078 62.8231 10.1251 62.8748 10.2337C63.1672 10.8204 63.4683 11.4027 63.7651 11.972C64.3544 11.3896 65.3264 10.8856 65.4641 10.2077C66.1049 7.11364 67.0985 5.61009 70.1954 3.85449C70.1844 3.98462 70.1844 4.11546 70.1954 4.24559C70.3072 4.93218 70.4319 5.61009 70.5481 6.29234C71.2836 5.82302 72.3503 5.52752 72.6987 4.85396C73.3037 3.68137 74.1947 2.68408 75.2875 1.95638C76.3803 1.22868 77.6388 0.794632 78.944 0.695286C78.9182 0.795233 78.8881 0.890835 78.8709 0.986437C78.7633 1.64696 78.6601 2.2901 78.5569 2.96366C79.3741 2.82025 80.5741 2.96366 80.9569 2.47696C82.914 -0.0521466 85.6323 0.173821 88.3722 0C88.3508 0.173052 88.3119 0.343425 88.256 0.508428C87.955 1.12984 87.641 1.73821 87.3141 2.36832C88.1442 2.45957 89.241 2.94627 89.7615 2.58559C92.411 0.734395 94.8842 1.91204 97.9552 2.69423C97.6768 2.78405 97.4097 2.90657 97.1595 3.05926C96.7036 3.51988 96.2691 3.99789 95.8261 4.47156C96.5745 4.82789 97.4391 5.62747 98.0498 5.46234C101.104 4.628 103.164 6.33145 105.534 7.9784C105.333 8.02776 105.136 8.09166 104.945 8.16961C104.381 8.47814 103.818 8.79971 103.259 9.11693C103.848 9.70358 104.428 10.7856 105.031 10.7987C108.33 10.8595 109.693 13.3104 111.482 15.5787C109.332 15.2094 109.332 15.2094 108.824 16.4479H169.85C169.91 17.0823 169.948 17.5299 170 18.0644C169.631 18.1302 169.26 18.1751 168.886 18.1991C158.362 18.1991 147.836 18.1991 137.307 18.1991C127.143 18.1991 116.979 18.1991 106.816 18.1991C106.387 18.238 105.957 18.1518 105.576 17.9507C105.194 17.7497 104.878 17.4422 104.665 17.0649C102.5 13.7857 99.567 11.0967 96.1272 9.23611C92.6873 7.37551 88.8464 6.40075 84.9446 6.39817C81.0428 6.39559 77.2006 7.36528 73.7583 9.22133C70.3161 11.0774 67.38 13.7625 65.2103 17.0388C64.7157 17.8167 64.2468 18.2512 63.2705 18.2512C42.5789 18.2223 21.8873 18.2223 1.19578 18.2512H0.0473633V16.6043H59.2919Z" fill="#2B1A01"/>
<path d="M0.0429688 49.5608V47.8009H1.65591C22.0292 47.8009 42.4068 47.8009 62.7886 47.8009C63.3112 47.7622 63.8341 47.8729 64.2973 48.1204C64.7605 48.3679 65.1455 48.742 65.4081 49.2001C67.6035 52.4249 70.5465 55.058 73.9804 56.8699C77.4142 58.6817 81.2347 59.6173 85.1086 59.595C88.9826 59.5727 92.7923 58.5933 96.2055 56.742C99.6187 54.8908 102.532 52.224 104.691 48.9742C105.121 48.3137 105.491 47.7965 106.476 47.8009C127.371 47.8385 148.268 47.8472 169.166 47.827C169.368 47.827 169.566 47.8661 169.875 47.8921C169.91 48.3615 169.944 48.8047 169.991 49.4609H110.583L107.702 56.2529L107.228 56.1269C107.177 56.0226 107.125 55.914 107.069 55.8097L106.153 54.0715C105.555 54.6538 104.433 55.2317 104.433 55.8097C104.403 59.1558 101.985 60.5463 99.7014 62.328C99.7014 62.0021 99.7014 61.8674 99.7014 61.737C99.6197 61.0808 99.5337 60.4334 99.4519 59.7641C98.6863 60.177 97.5637 60.3986 97.2153 61.0417C95.8906 63.5013 94.1529 64.8615 90.9872 65.3873C91.013 65.2395 91.0388 65.1178 91.056 64.9918C91.1334 64.3356 91.2066 63.6882 91.284 63.019C90.4625 63.1928 89.2796 63.0841 88.8796 63.5969C86.9054 66.113 84.2257 65.874 81.4128 66.0348C81.5762 65.7219 81.6364 65.6002 81.701 65.4742L82.5956 63.736C81.7698 63.6056 80.6558 63.0668 80.1697 63.4187C77.5288 65.309 75.0083 64.1749 72.3889 63.4492C72.4646 63.2955 72.5554 63.15 72.6599 63.0146C73.1244 62.5496 73.5975 62.0977 74.0663 61.6414C73.3351 61.2547 72.4706 60.3942 71.9158 60.5594C68.8533 61.4546 66.7758 59.7381 64.4231 58.1259L64.8833 57.8825L66.6382 57.0134C66.0704 56.405 65.5027 55.2752 64.9177 55.2752C61.5972 55.2752 60.2509 52.7765 58.3885 50.5342C59.4337 50.4212 60.5821 51.3338 61.1886 49.6217L0.0429688 49.5608Z" fill="#2B1A01"/>
<path d="M169.897 20.7934H168.258C147.776 20.7934 127.292 20.7934 106.807 20.7934C106.365 20.8405 105.92 20.7463 105.534 20.5241C105.148 20.3019 104.841 19.9629 104.656 19.5549C100.291 11.9937 93.7658 7.86976 85.0731 7.82196C76.3804 7.77416 69.8082 11.8199 65.3995 19.3594C65.1777 19.8348 64.8153 20.229 64.3622 20.4875C63.9092 20.7459 63.3879 20.8558 62.8704 20.8021C42.543 20.7731 22.2156 20.7659 1.8882 20.7804C1.26883 20.7804 0.645156 20.7065 0.0214844 20.6674V20.185C0.627951 20.1285 1.23442 20.0199 1.84089 20.0199C22.0134 20.0199 42.186 20.0329 62.3585 20.059C63.7091 20.059 64.436 19.6896 65.1543 18.4729C74.118 3.28957 95.9336 3.3591 104.867 18.5859C105.093 19.0636 105.458 19.4605 105.913 19.7236C106.368 19.9868 106.891 20.1037 107.413 20.059C127.638 20.0155 147.86 20.0025 168.082 20.0199C168.701 20.0199 169.32 20.1068 169.944 20.1502L169.897 20.7934Z" fill="#2B1A01"/>
<path d="M169.897 45.9845H167.94C147.767 45.9845 127.596 45.97 107.426 45.941C106.196 45.941 105.499 46.2886 104.846 47.3924C95.9765 62.6844 73.9975 62.7017 65.0553 47.4228C64.4187 46.3408 63.765 45.9367 62.5133 45.941C42.2891 45.9845 22.065 45.9975 1.84081 45.9801C1.22574 45.9801 0.610675 45.8802 -0.00439453 45.828V45.3587C0.455815 45.2866 0.919614 45.2401 1.38489 45.2196C22.0306 45.2196 42.6677 45.2196 63.2961 45.2196C63.693 45.1827 64.0913 45.2733 64.4342 45.4785C64.7772 45.6838 65.0472 45.9931 65.2059 46.3625C69.563 54.0107 76.1094 58.1607 84.8795 58.1911C93.7184 58.2215 100.299 54.0498 104.699 46.3625C104.857 45.9873 105.129 45.6721 105.475 45.4622C105.821 45.2522 106.224 45.1582 106.626 45.1936C127.272 45.2196 147.909 45.2196 168.538 45.1936C169.005 45.2148 169.472 45.2597 169.935 45.3283L169.897 45.9845Z" fill="#2B1A01"/>
</svg>
