<svg width="36" height="36" viewBox="0 0 36 36" fill="none" xmlns="http://www.w3.org/2000/svg">
<circle cx="18" cy="18" r="17.5" stroke="#222222"/>
<g clip-path="url(#clip0_114_1067)">
<path d="M17.6031 10.8026C16.332 10.8179 13.5991 11.0268 12.0705 12.4291C10.9335 13.5558 10.5365 15.2214 10.49 17.2811C10.4514 19.3334 10.4049 23.1875 14.1198 24.2369V25.8352C14.1198 25.8352 14.0966 26.4748 14.5193 26.6059C15.04 26.7708 15.3365 26.2787 15.8315 25.7501L16.7547 24.7061C19.2965 24.9175 21.2434 24.4304 21.4676 24.3581C21.9834 24.1933 24.8886 23.8221 25.3633 19.9675C25.8503 15.9867 25.1262 13.4785 23.8189 12.344H23.8109C23.4164 11.9807 21.8309 10.8253 18.2887 10.8125C18.2887 10.8125 18.0259 10.7947 17.6031 10.8021V10.8026ZM17.6467 11.9218C18.0076 11.9193 18.2268 11.9346 18.2268 11.9346C21.2251 11.9426 22.6561 12.8449 22.9937 13.1489C24.0946 14.0923 24.6618 16.3535 24.2465 19.6769C23.852 22.8994 21.4958 23.1033 21.0597 23.2424C20.8741 23.3018 19.1594 23.7245 16.9992 23.5855C16.9992 23.5855 15.3905 25.5268 14.8876 26.0268C14.8079 26.1144 14.7148 26.1401 14.6554 26.1273C14.5703 26.1065 14.5445 26.0011 14.5495 25.8565L14.5648 23.2038C11.4142 22.3326 11.5998 19.0453 11.6334 17.3282C11.6721 15.611 11.9943 14.2062 12.9536 13.2548C14.2451 12.0871 16.5656 11.9297 17.6457 11.9218H17.6467ZM17.8843 13.6384C17.8584 13.6382 17.8326 13.643 17.8086 13.6528C17.7846 13.6625 17.7627 13.6769 17.7442 13.6951C17.7258 13.7133 17.7111 13.735 17.7011 13.7589C17.6911 13.7829 17.6859 13.8085 17.6858 13.8344C17.6858 13.9453 17.7759 14.0329 17.8843 14.0329C18.3751 14.0236 18.8629 14.1115 19.3195 14.2916C19.7762 14.4718 20.1927 14.7405 20.5449 15.0823C21.2642 15.7808 21.6146 16.7193 21.628 17.9464C21.628 18.0548 21.7156 18.1449 21.8265 18.1449V18.137C21.8787 18.1371 21.9289 18.1166 21.9661 18.0799C22.0033 18.0432 22.0245 17.9932 22.025 17.941C22.049 17.3634 21.9554 16.7869 21.7497 16.2467C21.544 15.7064 21.2306 15.2136 20.8286 14.7982C20.045 14.0324 19.052 13.6379 17.8843 13.6379V13.6384ZM15.2752 14.0923C15.1351 14.0719 14.9922 14.1 14.8703 14.172H14.8599C14.5768 14.3379 14.3219 14.5476 14.1045 14.7933C13.9238 15.0022 13.8258 15.2135 13.8001 15.417C13.7847 15.5382 13.7951 15.6595 13.8312 15.7753L13.8441 15.7833C14.0476 16.3812 14.3134 16.9564 14.6381 17.4979C15.0564 18.2587 15.5711 18.9623 16.1696 19.5913L16.1874 19.617L16.2157 19.6378L16.2335 19.6586L16.2543 19.6764C16.8855 20.2767 17.5908 20.7938 18.3531 21.2154C19.2243 21.6896 19.7529 21.9138 20.0702 22.0069V22.0118C20.1633 22.0401 20.2479 22.0529 20.3331 22.0529C20.6035 22.0331 20.8595 21.9233 21.0602 21.7411C21.3048 21.5236 21.5121 21.2676 21.674 20.9832V20.9783C21.826 20.6922 21.7745 20.4214 21.5552 20.2383C21.1161 19.8544 20.6412 19.5134 20.1371 19.22C19.7995 19.0369 19.4564 19.1478 19.3173 19.3334L19.0208 19.7071C18.8689 19.8928 18.5927 19.867 18.5927 19.867L18.5847 19.872C16.525 19.3458 15.9756 17.2603 15.9756 17.2603C15.9756 17.2603 15.9498 16.9767 16.1404 16.8322L16.5117 16.5332C16.6894 16.3886 16.8131 16.0461 16.6226 15.708C16.3312 15.2032 15.991 14.7282 15.6068 14.2898C15.5228 14.1865 15.405 14.1162 15.2742 14.0914L15.2752 14.0923ZM18.2268 14.6804C17.964 14.6804 17.964 15.0774 18.2293 15.0774C18.5562 15.0827 18.8788 15.1524 19.1787 15.2824C19.4786 15.4124 19.7499 15.6003 19.9772 15.8352C20.1845 16.0639 20.3438 16.3319 20.4457 16.6233C20.5475 16.9147 20.5899 17.2236 20.5702 17.5316C20.5711 17.5837 20.5924 17.6334 20.6295 17.6701C20.6666 17.7067 20.7165 17.7274 20.7687 17.7276L20.7766 17.738C20.8291 17.7376 20.8794 17.7166 20.9165 17.6794C20.9537 17.6423 20.9747 17.592 20.9751 17.5395C20.9929 16.753 20.7484 16.0931 20.2687 15.5645C19.7866 15.0358 19.1139 14.7393 18.2551 14.6804H18.2268ZM18.5521 15.7476C18.2813 15.7397 18.2709 16.1446 18.5392 16.1525C19.1916 16.1862 19.5084 16.5159 19.55 17.194C19.5509 17.2455 19.5719 17.2946 19.6085 17.3307C19.6452 17.3669 19.6945 17.3873 19.746 17.3876H19.7539C19.7804 17.3864 19.8064 17.38 19.8303 17.3687C19.8543 17.3575 19.8758 17.3415 19.8935 17.3218C19.9113 17.3022 19.9249 17.2791 19.9337 17.2541C19.9424 17.2291 19.9461 17.2026 19.9445 17.1762C19.898 16.2921 19.4158 15.7942 18.56 15.7481H18.5521V15.7476Z" fill="#222222"/>
</g>
<defs>
<clipPath id="clip0_114_1067">
<rect width="15.84" height="15.84" fill="white" transform="translate(10.0801 10.8)"/>
</clipPath>
</defs>
</svg>
